<svg xmlns="http://www.w3.org/2000/svg" width="1920" height="1080"><defs><filter id="g" x="-100%" y="-100%" width="300%" height="300%"><feGaussianBlur stdDeviation="2.4" result="b"/><feMerge><feMergeNode in="b"/><feMergeNode in="SourceGraphic"/></feMerge></filter></defs><circle cx="1309" cy="228" r="1.5" fill="#fff8f4" opacity="0.51" filter="url(#g)"/><circle cx="501" cy="457" r="1.5" fill="#ffffff" opacity="0.53" filter="url(#g)"/><circle cx="1385" cy="178" r="1.5" fill="#ffffff" opacity="0.65" filter="url(#g)"/><circle cx="61" cy="191" r="1.5" fill="#ffffff" opacity="0.55" filter="url(#g)"/><circle cx="1149" cy="407" r="1.5" fill="#f0f4ff" opacity="0.68" filter="url(#g)"/><circle cx="451" cy="919" r="1.5" fill="#ffffff" opacity="0.65" filter="url(#g)"/><circle cx="1554" cy="326" r="1.5" fill="#fff8f4" opacity="0.67" filter="url(#g)"/><circle cx="569" cy="318" r="1.5" fill="#fff8f4" opacity="0.55" filter="url(#g)"/><circle cx="209" cy="189" r="1.5" fill="#fff8f4" opacity="0.59" filter="url(#g)"/><circle cx="1735" cy="704" r="1.5" fill="#ffffff" opacity="0.65" filter="url(#g)"/><circle cx="1494" cy="940" r="1.5" fill="#f0f4ff" opacity="0.63" filter="url(#g)"/><circle cx="161" cy="600" r="1.5" fill="#fff8f4" opacity="0.71" filter="url(#g)"/><circle cx="1182" cy="393" r="1.5" fill="#ffffff" opacity="0.68" filter="url(#g)"/><circle cx="1354" cy="466" r="1.5" fill="#ffffff" opacity="0.69" filter="url(#g)"/><circle cx="1751" cy="476" r="1" fill="#f0f4ff" opacity="0.45"/><circle cx="569" cy="928" r="1" fill="#fff8f4" opacity="0.41"/><circle cx="333" cy="758" r="1" fill="#fff8f4" opacity="0.35"/><circle cx="1437" cy="146" r="1" fill="#e8f0ff" opacity="0.4"/><circle cx="1093" cy="501" r="1" fill="#f0f4ff" opacity="0.31"/><circle cx="552" cy="449" r="1" fill="#ffffff" opacity="0.42"/><circle cx="469" cy="65" r="1" fill="#f0f4ff" opacity="0.44"/><circle cx="548" cy="135" r="1" fill="#fff8f4" opacity="0.32"/><circle cx="435" cy="1022" r="1" fill="#f0f4ff" opacity="0.36"/><circle cx="292" cy="542" r="1" fill="#fff8f4" opacity="0.31"/><circle cx="1529" cy="877" r="1" fill="#f0f4ff" opacity="0.46"/><circle cx="741" cy="449" r="1" fill="#e8f0ff" opacity="0.48"/><circle cx="1043" cy="1010" r="1" fill="#ffffff" opacity="0.3"/><circle cx="1763" cy="224" r="1" fill="#e8f0ff" opacity="0.31"/><circle cx="1622" cy="864" r="1" fill="#f0f4ff" opacity="0.4"/><circle cx="781" cy="958" r="1" fill="#ffffff" opacity="0.39"/><circle cx="1393" cy="234" r="1" fill="#fff8f4" opacity="0.42"/><circle cx="1574" cy="696" r="1" fill="#f0f4ff" opacity="0.3"/><circle cx="323" cy="929" r="1" fill="#fff8f4" opacity="0.28"/><circle cx="1025" cy="365" r="1" fill="#ffffff" opacity="0.38"/><circle cx="1782" cy="611" r="1" fill="#e8f0ff" opacity="0.45"/><circle cx="313" cy="765" r="1" fill="#ffffff" opacity="0.43"/><circle cx="1226" cy="663" r="1" fill="#ffffff" opacity="0.38"/><circle cx="1902" cy="743" r="1" fill="#fff8f4" opacity="0.46"/><circle cx="490" cy="118" r="1" fill="#ffffff" opacity="0.33"/><circle cx="175" cy="995" r="1" fill="#e8f0ff" opacity="0.44"/><circle cx="262" cy="973" r="1" fill="#e8f0ff" opacity="0.47"/><circle cx="542" cy="1080" r="1" fill="#f0f4ff" opacity="0.45"/><circle cx="433" cy="411" r="1" fill="#f0f4ff" opacity="0.42"/><circle cx="1375" cy="764" r="1" fill="#f0f4ff" opacity="0.37"/><circle cx="247" cy="507" r="1" fill="#fff8f4" opacity="0.32"/><circle cx="43" cy="471" r="1" fill="#ffffff" opacity="0.4"/><circle cx="145" cy="120" r="1" fill="#ffffff" opacity="0.33"/><circle cx="1760" cy="676" r="1" fill="#e8f0ff" opacity="0.29"/><circle cx="570" cy="994" r="1" fill="#e8f0ff" opacity="0.32"/><circle cx="1481" cy="968" r="1" fill="#f0f4ff" opacity="0.33"/><circle cx="1653" cy="833" r="1" fill="#ffffff" opacity="0.32"/><circle cx="1349" cy="882" r="1" fill="#f0f4ff" opacity="0.35"/><circle cx="956" cy="110" r="0.7" fill="#fff" opacity="0.18"/><circle cx="1323" cy="201" r="0.7" fill="#fff" opacity="0.11"/><circle cx="1491" cy="694" r="0.7" fill="#fff" opacity="0.2"/><circle cx="223" cy="509" r="0.7" fill="#fff" opacity="0.12"/><circle cx="1098" cy="918" r="0.7" fill="#fff" opacity="0.12"/><circle cx="375" cy="570" r="0.7" fill="#fff" opacity="0.16"/><circle cx="1790" cy="154" r="0.7" fill="#fff" opacity="0.15"/><circle cx="1764" cy="200" r="0.7" fill="#fff" opacity="0.11"/><circle cx="1107" cy="30" r="0.7" fill="#fff" opacity="0.22"/><circle cx="1897" cy="484" r="0.7" fill="#fff" opacity="0.12"/><circle cx="994" cy="985" r="0.7" fill="#fff" opacity="0.13"/><circle cx="821" cy="120" r="0.7" fill="#fff" opacity="0.12"/><circle cx="4" cy="799" r="0.7" fill="#fff" opacity="0.13"/><circle cx="1605" cy="931" r="0.7" fill="#fff" opacity="0.13"/><circle cx="1426" cy="996" r="0.7" fill="#fff" opacity="0.12"/><circle cx="607" cy="445" r="0.7" fill="#fff" opacity="0.22"/><circle cx="1186" cy="124" r="0.7" fill="#fff" opacity="0.19"/><circle cx="117" cy="102" r="0.7" fill="#fff" opacity="0.17"/><circle cx="1029" cy="322" r="0.7" fill="#fff" opacity="0.11"/><circle cx="1040" cy="164" r="0.7" fill="#fff" opacity="0.2"/><circle cx="140" cy="139" r="0.7" fill="#fff" opacity="0.18"/><circle cx="481" cy="826" r="0.7" fill="#fff" opacity="0.11"/><circle cx="1823" cy="504" r="0.7" fill="#fff" opacity="0.17"/><circle cx="81" cy="167" r="0.7" fill="#fff" opacity="0.15"/><circle cx="1195" cy="1070" r="0.7" fill="#fff" opacity="0.14"/><circle cx="534" cy="418" r="0.7" fill="#fff" opacity="0.18"/><circle cx="643" cy="488" r="0.7" fill="#fff" opacity="0.13"/><circle cx="268" cy="614" r="0.7" fill="#fff" opacity="0.15"/><circle cx="1902" cy="148" r="0.7" fill="#fff" opacity="0.1"/><circle cx="1272" cy="204" r="0.7" fill="#fff" opacity="0.11"/><circle cx="436" cy="1036" r="0.7" fill="#fff" opacity="0.13"/><circle cx="1911" cy="714" r="0.7" fill="#fff" opacity="0.21"/><circle cx="1800" cy="500" r="0.7" fill="#fff" opacity="0.14"/><circle cx="323" cy="897" r="0.7" fill="#fff" opacity="0.2"/><circle cx="1440" cy="619" r="0.7" fill="#fff" opacity="0.17"/><circle cx="1652" cy="16" r="0.7" fill="#fff" opacity="0.18"/><circle cx="1135" cy="613" r="0.7" fill="#fff" opacity="0.21"/><circle cx="212" cy="275" r="0.7" fill="#fff" opacity="0.13"/><circle cx="1822" cy="219" r="0.7" fill="#fff" opacity="0.19"/><circle cx="318" cy="557" r="0.7" fill="#fff" opacity="0.13"/><circle cx="431" cy="702" r="0.7" fill="#fff" opacity="0.12"/><circle cx="1298" cy="540" r="0.7" fill="#fff" opacity="0.16"/><circle cx="514" cy="104" r="0.7" fill="#fff" opacity="0.11"/><circle cx="867" cy="566" r="0.7" fill="#fff" opacity="0.11"/><circle cx="683" cy="267" r="0.7" fill="#fff" opacity="0.18"/><circle cx="536" cy="330" r="0.7" fill="#fff" opacity="0.19"/><circle cx="1129" cy="875" r="0.7" fill="#fff" opacity="0.17"/><circle cx="229" cy="154" r="0.7" fill="#fff" opacity="0.21"/><circle cx="1415" cy="305" r="0.7" fill="#fff" opacity="0.17"/><circle cx="1709" cy="756" r="0.7" fill="#fff" opacity="0.17"/><circle cx="303" cy="880" r="0.7" fill="#fff" opacity="0.12"/><circle cx="631" cy="746" r="0.7" fill="#fff" opacity="0.21"/><circle cx="1630" cy="81" r="0.7" fill="#fff" opacity="0.21"/><circle cx="430" cy="511" r="0.7" fill="#fff" opacity="0.18"/><circle cx="724" cy="832" r="0.7" fill="#fff" opacity="0.22"/><circle cx="1534" cy="316" r="0.7" fill="#fff" opacity="0.21"/><circle cx="484" cy="332" r="0.7" fill="#fff" opacity="0.22"/><circle cx="1660" cy="362" r="0.7" fill="#fff" opacity="0.21"/><circle cx="50" cy="367" r="0.7" fill="#fff" opacity="0.19"/><circle cx="680" cy="843" r="0.7" fill="#fff" opacity="0.2"/><circle cx="1769" cy="508" r="0.7" fill="#fff" opacity="0.13"/><circle cx="1612" cy="221" r="0.7" fill="#fff" opacity="0.15"/><circle cx="79" cy="963" r="0.7" fill="#fff" opacity="0.13"/><circle cx="1672" cy="942" r="0.7" fill="#fff" opacity="0.14"/><circle cx="1680" cy="466" r="0.7" fill="#fff" opacity="0.13"/><circle cx="1351" cy="395" r="0.7" fill="#fff" opacity="0.15"/><circle cx="570" cy="142" r="0.7" fill="#fff" opacity="0.22"/><circle cx="571" cy="719" r="0.7" fill="#fff" opacity="0.18"/><circle cx="818" cy="678" r="0.7" fill="#fff" opacity="0.21"/><circle cx="236" cy="534" r="0.7" fill="#fff" opacity="0.12"/><circle cx="543" cy="78" r="0.7" fill="#fff" opacity="0.11"/><circle cx="889" cy="707" r="0.7" fill="#fff" opacity="0.19"/><circle cx="642" cy="893" r="0.7" fill="#fff" opacity="0.17"/><circle cx="1047" cy="236" r="0.7" fill="#fff" opacity="0.15"/><circle cx="1180" cy="389" r="0.7" fill="#fff" opacity="0.13"/><circle cx="1451" cy="893" r="0.7" fill="#fff" opacity="0.1"/><circle cx="1895" cy="403" r="0.7" fill="#fff" opacity="0.14"/><circle cx="143" cy="676" r="0.7" fill="#fff" opacity="0.17"/><circle cx="1358" cy="255" r="0.7" fill="#fff" opacity="0.19"/><circle cx="615" cy="1038" r="0.7" fill="#fff" opacity="0.14"/><circle cx="836" cy="668" r="0.7" fill="#fff" opacity="0.15"/><circle cx="605" cy="260" r="0.7" fill="#fff" opacity="0.12"/><circle cx="1361" cy="776" r="0.7" fill="#fff" opacity="0.18"/><circle cx="1848" cy="356" r="0.7" fill="#fff" opacity="0.17"/><circle cx="616" cy="831" r="0.7" fill="#fff" opacity="0.17"/><circle cx="0" cy="622" r="0.7" fill="#fff" opacity="0.13"/><circle cx="880" cy="659" r="0.7" fill="#fff" opacity="0.16"/><circle cx="905" cy="437" r="0.7" fill="#fff" opacity="0.16"/><circle cx="1625" cy="347" r="0.7" fill="#fff" opacity="0.18"/><circle cx="581" cy="1055" r="0.7" fill="#fff" opacity="0.18"/><circle cx="1268" cy="686" r="0.7" fill="#fff" opacity="0.11"/><circle cx="1538" cy="481" r="0.7" fill="#fff" opacity="0.18"/><circle cx="460" cy="407" r="0.7" fill="#fff" opacity="0.12"/><circle cx="94" cy="501" r="0.7" fill="#fff" opacity="0.22"/><circle cx="1251" cy="149" r="0.7" fill="#fff" opacity="0.15"/><circle cx="1814" cy="398" r="0.5" fill="#fff" opacity="0.07"/><circle cx="786" cy="1012" r="0.5" fill="#fff" opacity="0.05"/><circle cx="302" cy="11" r="0.5" fill="#fff" opacity="0.08"/><circle cx="1762" cy="218" r="0.5" fill="#fff" opacity="0.08"/><circle cx="448" cy="360" r="0.5" fill="#fff" opacity="0.08"/><circle cx="1425" cy="1060" r="0.5" fill="#fff" opacity="0.06"/><circle cx="1141" cy="510" r="0.5" fill="#fff" opacity="0.09"/><circle cx="248" cy="934" r="0.5" fill="#fff" opacity="0.04"/><circle cx="951" cy="649" r="0.5" fill="#fff" opacity="0.09"/><circle cx="1825" cy="906" r="0.5" fill="#fff" opacity="0.07"/><circle cx="1473" cy="1033" r="0.5" fill="#fff" opacity="0.06"/><circle cx="1857" cy="913" r="0.5" fill="#fff" opacity="0.08"/><circle cx="1523" cy="972" r="0.5" fill="#fff" opacity="0.06"/><circle cx="1539" cy="506" r="0.5" fill="#fff" opacity="0.08"/><circle cx="567" cy="1067" r="0.5" fill="#fff" opacity="0.06"/><circle cx="489" cy="562" r="0.5" fill="#fff" opacity="0.06"/><circle cx="1461" cy="585" r="0.5" fill="#fff" opacity="0.04"/><circle cx="687" cy="654" r="0.5" fill="#fff" opacity="0.08"/><circle cx="165" cy="283" r="0.5" fill="#fff" opacity="0.04"/><circle cx="784" cy="312" r="0.5" fill="#fff" opacity="0.07"/><circle cx="131" cy="849" r="0.5" fill="#fff" opacity="0.05"/><circle cx="1111" cy="954" r="0.5" fill="#fff" opacity="0.05"/><circle cx="423" cy="860" r="0.5" fill="#fff" opacity="0.05"/><circle cx="1576" cy="40" r="0.5" fill="#fff" opacity="0.08"/><circle cx="1567" cy="779" r="0.5" fill="#fff" opacity="0.06"/><circle cx="720" cy="611" r="0.5" fill="#fff" opacity="0.08"/><circle cx="1747" cy="858" r="0.5" fill="#fff" opacity="0.06"/><circle cx="1504" cy="451" r="0.5" fill="#fff" opacity="0.06"/><circle cx="558" cy="892" r="0.5" fill="#fff" opacity="0.06"/><circle cx="796" cy="688" r="0.5" fill="#fff" opacity="0.07"/><circle cx="1634" cy="828" r="0.5" fill="#fff" opacity="0.07"/><circle cx="1721" cy="957" r="0.5" fill="#fff" opacity="0.09"/><circle cx="1274" cy="55" r="0.5" fill="#fff" opacity="0.08"/><circle cx="1212" cy="55" r="0.5" fill="#fff" opacity="0.04"/><circle cx="877" cy="277" r="0.5" fill="#fff" opacity="0.08"/><circle cx="372" cy="102" r="0.5" fill="#fff" opacity="0.05"/><circle cx="670" cy="433" r="0.5" fill="#fff" opacity="0.06"/><circle cx="691" cy="776" r="0.5" fill="#fff" opacity="0.05"/><circle cx="1703" cy="863" r="0.5" fill="#fff" opacity="0.05"/><circle cx="167" cy="963" r="0.5" fill="#fff" opacity="0.03"/><circle cx="1104" cy="106" r="0.5" fill="#fff" opacity="0.09"/><circle cx="716" cy="459" r="0.5" fill="#fff" opacity="0.07"/><circle cx="1599" cy="82" r="0.5" fill="#fff" opacity="0.08"/><circle cx="506" cy="408" r="0.5" fill="#fff" opacity="0.08"/><circle cx="1272" cy="312" r="0.5" fill="#fff" opacity="0.04"/><circle cx="969" cy="234" r="0.5" fill="#fff" opacity="0.06"/><circle cx="446" cy="952" r="0.5" fill="#fff" opacity="0.07"/><circle cx="1570" cy="755" r="0.5" fill="#fff" opacity="0.04"/><circle cx="1243" cy="234" r="0.5" fill="#fff" opacity="0.08"/><circle cx="335" cy="637" r="0.5" fill="#fff" opacity="0.04"/><circle cx="52" cy="638" r="0.5" fill="#fff" opacity="0.06"/><circle cx="1859" cy="768" r="0.5" fill="#fff" opacity="0.05"/><circle cx="1464" cy="406" r="0.5" fill="#fff" opacity="0.03"/><circle cx="1414" cy="497" r="0.5" fill="#fff" opacity="0.04"/><circle cx="1582" cy="617" r="0.5" fill="#fff" opacity="0.08"/><circle cx="1229" cy="247" r="0.5" fill="#fff" opacity="0.08"/><circle cx="1159" cy="84" r="0.5" fill="#fff" opacity="0.05"/><circle cx="877" cy="758" r="0.5" fill="#fff" opacity="0.03"/><circle cx="1326" cy="698" r="0.5" fill="#fff" opacity="0.03"/><circle cx="860" cy="1003" r="0.5" fill="#fff" opacity="0.04"/><circle cx="741" cy="941" r="0.5" fill="#fff" opacity="0.07"/><circle cx="891" cy="360" r="0.5" fill="#fff" opacity="0.07"/><circle cx="1332" cy="553" r="0.5" fill="#fff" opacity="0.07"/><circle cx="1883" cy="990" r="0.5" fill="#fff" opacity="0.06"/><circle cx="1691" cy="549" r="0.5" fill="#fff" opacity="0.05"/><circle cx="502" cy="177" r="0.5" fill="#fff" opacity="0.05"/><circle cx="923" cy="499" r="0.5" fill="#fff" opacity="0.08"/><circle cx="1167" cy="776" r="0.5" fill="#fff" opacity="0.05"/><circle cx="1012" cy="665" r="0.5" fill="#fff" opacity="0.04"/><circle cx="434" cy="726" r="0.5" fill="#fff" opacity="0.08"/><circle cx="697" cy="572" r="0.5" fill="#fff" opacity="0.08"/><circle cx="1436" cy="565" r="0.5" fill="#fff" opacity="0.06"/><circle cx="1058" cy="391" r="0.5" fill="#fff" opacity="0.04"/><circle cx="1474" cy="832" r="0.5" fill="#fff" opacity="0.06"/><circle cx="1552" cy="492" r="0.5" fill="#fff" opacity="0.07"/><circle cx="1322" cy="1005" r="0.5" fill="#fff" opacity="0.06"/><circle cx="35" cy="190" r="0.5" fill="#fff" opacity="0.05"/><circle cx="828" cy="498" r="0.5" fill="#fff" opacity="0.05"/><circle cx="1191" cy="755" r="0.5" fill="#fff" opacity="0.06"/><circle cx="1087" cy="704" r="0.5" fill="#fff" opacity="0.06"/><circle cx="1527" cy="677" r="0.5" fill="#fff" opacity="0.05"/><circle cx="929" cy="554" r="0.5" fill="#fff" opacity="0.05"/><circle cx="472" cy="247" r="0.5" fill="#fff" opacity="0.07"/><circle cx="646" cy="244" r="0.5" fill="#fff" opacity="0.07"/><circle cx="1560" cy="379" r="0.5" fill="#fff" opacity="0.04"/><circle cx="1512" cy="991" r="0.5" fill="#fff" opacity="0.05"/><circle cx="1207" cy="1074" r="0.5" fill="#fff" opacity="0.07"/><circle cx="205" cy="397" r="0.5" fill="#fff" opacity="0.05"/><circle cx="739" cy="367" r="0.5" fill="#fff" opacity="0.05"/><circle cx="1450" cy="259" r="0.5" fill="#fff" opacity="0.05"/><circle cx="111" cy="598" r="0.5" fill="#fff" opacity="0.07"/><circle cx="258" cy="1005" r="0.5" fill="#fff" opacity="0.04"/><circle cx="25" cy="582" r="0.5" fill="#fff" opacity="0.06"/><circle cx="902" cy="697" r="0.5" fill="#fff" opacity="0.04"/><circle cx="105" cy="517" r="0.5" fill="#fff" opacity="0.09"/><circle cx="978" cy="233" r="0.5" fill="#fff" opacity="0.08"/><circle cx="820" cy="1007" r="0.5" fill="#fff" opacity="0.03"/><circle cx="1289" cy="109" r="0.5" fill="#fff" opacity="0.04"/><circle cx="1661" cy="622" r="0.5" fill="#fff" opacity="0.04"/><circle cx="508" cy="242" r="0.5" fill="#fff" opacity="0.06"/><circle cx="852" cy="462" r="0.5" fill="#fff" opacity="0.08"/><circle cx="779" cy="922" r="0.5" fill="#fff" opacity="0.08"/><circle cx="608" cy="878" r="0.5" fill="#fff" opacity="0.05"/><circle cx="1271" cy="123" r="0.5" fill="#fff" opacity="0.07"/><circle cx="1515" cy="203" r="0.5" fill="#fff" opacity="0.09"/><circle cx="425" cy="432" r="0.5" fill="#fff" opacity="0.05"/><circle cx="166" cy="321" r="0.5" fill="#fff" opacity="0.04"/><circle cx="1130" cy="153" r="0.5" fill="#fff" opacity="0.04"/><circle cx="836" cy="922" r="0.5" fill="#fff" opacity="0.07"/><circle cx="962" cy="596" r="0.5" fill="#fff" opacity="0.03"/><circle cx="590" cy="579" r="0.5" fill="#fff" opacity="0.07"/><circle cx="929" cy="145" r="0.5" fill="#fff" opacity="0.07"/><circle cx="1892" cy="541" r="0.5" fill="#fff" opacity="0.08"/><circle cx="1280" cy="405" r="0.5" fill="#fff" opacity="0.06"/><circle cx="1115" cy="460" r="0.5" fill="#fff" opacity="0.07"/><circle cx="1860" cy="544" r="0.5" fill="#fff" opacity="0.08"/><circle cx="146" cy="122" r="0.5" fill="#fff" opacity="0.04"/><circle cx="629" cy="591" r="0.5" fill="#fff" opacity="0.06"/><circle cx="959" cy="622" r="0.5" fill="#fff" opacity="0.07"/><circle cx="557" cy="1024" r="0.5" fill="#fff" opacity="0.06"/><circle cx="896" cy="164" r="0.5" fill="#fff" opacity="0.07"/><circle cx="1821" cy="884" r="0.5" fill="#fff" opacity="0.07"/><circle cx="1236" cy="512" r="0.5" fill="#fff" opacity="0.03"/><circle cx="468" cy="42" r="0.5" fill="#fff" opacity="0.09"/><circle cx="1376" cy="551" r="0.5" fill="#fff" opacity="0.06"/><circle cx="1562" cy="358" r="0.5" fill="#fff" opacity="0.06"/><circle cx="1334" cy="905" r="0.5" fill="#fff" opacity="0.08"/><circle cx="371" cy="892" r="0.5" fill="#fff" opacity="0.07"/><circle cx="1007" cy="186" r="0.5" fill="#fff" opacity="0.06"/><circle cx="836" cy="682" r="0.5" fill="#fff" opacity="0.05"/><circle cx="214" cy="329" r="0.5" fill="#fff" opacity="0.05"/><circle cx="1420" cy="1014" r="0.5" fill="#fff" opacity="0.05"/><circle cx="820" cy="75" r="0.5" fill="#fff" opacity="0.06"/><circle cx="644" cy="516" r="0.5" fill="#fff" opacity="0.05"/><circle cx="1582" cy="827" r="0.5" fill="#fff" opacity="0.08"/><circle cx="1689" cy="2" r="0.5" fill="#fff" opacity="0.07"/><circle cx="1111" cy="946" r="0.5" fill="#fff" opacity="0.05"/><circle cx="384" cy="1061" r="0.5" fill="#fff" opacity="0.05"/><circle cx="1549" cy="1020" r="0.5" fill="#fff" opacity="0.07"/><circle cx="1556" cy="105" r="0.5" fill="#fff" opacity="0.04"/><circle cx="1124" cy="268" r="0.5" fill="#fff" opacity="0.09"/><circle cx="897" cy="992" r="0.5" fill="#fff" opacity="0.04"/><circle cx="1290" cy="490" r="0.5" fill="#fff" opacity="0.07"/><circle cx="636" cy="28" r="0.5" fill="#fff" opacity="0.06"/><circle cx="190" cy="460" r="0.5" fill="#fff" opacity="0.09"/><circle cx="1869" cy="232" r="0.5" fill="#fff" opacity="0.06"/><circle cx="240" cy="315" r="0.5" fill="#fff" opacity="0.06"/><circle cx="1467" cy="597" r="0.5" fill="#fff" opacity="0.06"/><circle cx="559" cy="850" r="0.5" fill="#fff" opacity="0.08"/><circle cx="967" cy="499" r="0.5" fill="#fff" opacity="0.06"/><circle cx="296" cy="785" r="0.5" fill="#fff" opacity="0.04"/><circle cx="1227" cy="1040" r="0.5" fill="#fff" opacity="0.07"/><circle cx="279" cy="142" r="0.5" fill="#fff" opacity="0.05"/><circle cx="1617" cy="849" r="0.5" fill="#fff" opacity="0.05"/><circle cx="1613" cy="1039" r="0.5" fill="#fff" opacity="0.05"/><circle cx="5" cy="579" r="0.5" fill="#fff" opacity="0.07"/><circle cx="1715" cy="1002" r="0.5" fill="#fff" opacity="0.08"/><circle cx="914" cy="991" r="0.5" fill="#fff" opacity="0.05"/><circle cx="1130" cy="772" r="0.5" fill="#fff" opacity="0.06"/><circle cx="659" cy="386" r="0.5" fill="#fff" opacity="0.09"/><circle cx="489" cy="784" r="0.5" fill="#fff" opacity="0.04"/><circle cx="1588" cy="841" r="0.5" fill="#fff" opacity="0.03"/><circle cx="1525" cy="968" r="0.5" fill="#fff" opacity="0.07"/><circle cx="1661" cy="780" r="0.5" fill="#fff" opacity="0.05"/><circle cx="1359" cy="311" r="0.5" fill="#fff" opacity="0.06"/><circle cx="75" cy="258" r="0.5" fill="#fff" opacity="0.06"/><circle cx="1208" cy="679" r="0.5" fill="#fff" opacity="0.08"/><circle cx="1790" cy="901" r="0.5" fill="#fff" opacity="0.04"/><circle cx="1864" cy="935" r="0.5" fill="#fff" opacity="0.03"/><circle cx="295" cy="839" r="0.5" fill="#fff" opacity="0.08"/><circle cx="316" cy="153" r="0.5" fill="#fff" opacity="0.06"/><circle cx="542" cy="693" r="0.5" fill="#fff" opacity="0.07"/><circle cx="814" cy="164" r="0.5" fill="#fff" opacity="0.08"/><circle cx="1745" cy="778" r="0.5" fill="#fff" opacity="0.09"/><circle cx="1283" cy="999" r="0.5" fill="#fff" opacity="0.08"/><circle cx="73" cy="140" r="0.5" fill="#fff" opacity="0.04"/><circle cx="1401" cy="588" r="0.5" fill="#fff" opacity="0.09"/><circle cx="1529" cy="185" r="0.5" fill="#fff" opacity="0.06"/><circle cx="201" cy="205" r="0.5" fill="#fff" opacity="0.06"/><circle cx="1421" cy="613" r="0.5" fill="#fff" opacity="0.08"/><circle cx="94" cy="664" r="0.5" fill="#fff" opacity="0.08"/><circle cx="600" cy="734" r="0.5" fill="#fff" opacity="0.05"/><circle cx="298" cy="500" r="0.5" fill="#fff" opacity="0.06"/><circle cx="1159" cy="368" r="0.5" fill="#fff" opacity="0.04"/><circle cx="161" cy="783" r="0.5" fill="#fff" opacity="0.07"/><circle cx="493" cy="1019" r="0.5" fill="#fff" opacity="0.08"/><circle cx="293" cy="475" r="0.5" fill="#fff" opacity="0.06"/><circle cx="520" cy="941" r="0.5" fill="#fff" opacity="0.05"/><circle cx="19" cy="952" r="0.5" fill="#fff" opacity="0.08"/><circle cx="1387" cy="323" r="0.5" fill="#fff" opacity="0.03"/></svg>
